<svg width="212" height="36" viewBox="0 0 212 36" fill="none" xmlns="http://www.w3.org/2000/svg">
<circle cx="13.9703" cy="13.9848" r="12.4799" stroke="#0C0C0C" stroke-width="0.829368"/>
<circle cx="13.9705" cy="13.9846" r="6.59595" fill="#0C0C0C"/>
<path d="M34.0865 24.0669L25.3418 27.8578L19.9241 35.3532L14.3882 13.9856L34.0865 24.0669Z" fill="#7F6AFF"/>
<path d="M47.9426 29.1444L44.9986 6.74441H49.1906L51.3666 26.2004H51.9426L54.7586 6.74441H62.0546L64.8706 26.2004H65.4466L67.6226 6.74441H71.8146L68.8706 29.1444H61.5746L58.6946 9.24041H58.1186L55.2386 29.1444H47.9426ZM82.0731 29.5924C80.4944 29.5924 79.0971 29.2617 77.8811 28.6004C76.6864 27.9177 75.7477 26.9684 75.0651 25.7524C74.4037 24.5151 74.0731 23.0644 74.0731 21.4004V21.0164C74.0731 19.3524 74.4037 17.9124 75.0651 16.6964C75.7264 15.4591 76.6544 14.5097 77.8491 13.8484C79.0437 13.1657 80.4304 12.8244 82.0091 12.8244C83.5664 12.8244 84.9211 13.1764 86.0731 13.8804C87.2251 14.5631 88.1211 15.5231 88.7611 16.7604C89.4011 17.9764 89.7211 19.3951 89.7211 21.0164V22.3924H78.1691C78.2117 23.4804 78.6171 24.3657 79.3851 25.0484C80.1531 25.7311 81.0917 26.0724 82.2011 26.0724C83.3317 26.0724 84.1637 25.8271 84.6971 25.3364C85.2304 24.8457 85.6357 24.3017 85.9131 23.7044L89.2091 25.4324C88.9104 25.9871 88.4731 26.5951 87.8971 27.2564C87.3424 27.8964 86.5957 28.4511 85.6571 28.9204C84.7184 29.3684 83.5237 29.5924 82.0731 29.5924ZM78.2011 19.3844H85.6251C85.5397 18.4671 85.1664 17.7311 84.5051 17.1764C83.8651 16.6217 83.0224 16.3444 81.9771 16.3444C80.8891 16.3444 80.0251 16.6217 79.3851 17.1764C78.7451 17.7311 78.3504 18.4671 78.2011 19.3844ZM102.846 29.5924C101.416 29.5924 100.318 29.3471 99.5498 28.8564C98.7818 28.3657 98.2165 27.8217 97.8538 27.2244H97.2778V29.1444H93.3098V6.74441H97.3418V15.0964H97.9178C98.1525 14.7124 98.4618 14.3497 98.8458 14.0084C99.2512 13.6671 99.7738 13.3897 100.414 13.1764C101.075 12.9417 101.886 12.8244 102.846 12.8244C104.126 12.8244 105.31 13.1444 106.398 13.7844C107.486 14.4031 108.36 15.3204 109.022 16.5364C109.683 17.7524 110.014 19.2244 110.014 20.9524V21.4644C110.014 23.1924 109.683 24.6644 109.022 25.8804C108.36 27.0964 107.486 28.0244 106.398 28.6644C105.31 29.2831 104.126 29.5924 102.846 29.5924ZM101.63 26.0724C102.867 26.0724 103.902 25.6777 104.734 24.8884C105.566 24.0777 105.982 22.9044 105.982 21.3684V21.0484C105.982 19.5124 105.566 18.3497 104.734 17.5604C103.923 16.7497 102.888 16.3444 101.63 16.3444C100.392 16.3444 99.3578 16.7497 98.5258 17.5604C97.6938 18.3497 97.2778 19.5124 97.2778 21.0484V21.3684C97.2778 22.9044 97.6938 24.0777 98.5258 24.8884C99.3578 25.6777 100.392 26.0724 101.63 26.0724ZM120.308 29.5924C118.239 29.5924 116.543 29.1444 115.22 28.2484C113.897 27.3524 113.097 26.0724 112.82 24.4084L116.532 23.4484C116.681 24.1951 116.927 24.7817 117.268 25.2084C117.631 25.6351 118.068 25.9444 118.58 26.1364C119.113 26.3071 119.689 26.3924 120.308 26.3924C121.247 26.3924 121.94 26.2324 122.388 25.9124C122.836 25.5711 123.06 25.1551 123.06 24.6644C123.06 24.1737 122.847 23.8004 122.42 23.5444C121.993 23.2671 121.311 23.0431 120.372 22.8724L119.476 22.7124C118.367 22.4991 117.353 22.2111 116.436 21.8484C115.519 21.4644 114.783 20.9417 114.228 20.2804C113.673 19.6191 113.396 18.7657 113.396 17.7204C113.396 16.1417 113.972 14.9364 115.124 14.1044C116.276 13.2511 117.791 12.8244 119.668 12.8244C121.439 12.8244 122.911 13.2191 124.084 14.0084C125.257 14.7977 126.025 15.8324 126.388 17.1124L122.644 18.2644C122.473 17.4537 122.121 16.8777 121.588 16.5364C121.076 16.1951 120.436 16.0244 119.668 16.0244C118.9 16.0244 118.313 16.1631 117.908 16.4404C117.503 16.6964 117.3 17.0591 117.3 17.5284C117.3 18.0404 117.513 18.4244 117.94 18.6804C118.367 18.9151 118.943 19.0964 119.668 19.2244L120.564 19.3844C121.759 19.5977 122.836 19.8857 123.796 20.2484C124.777 20.5897 125.545 21.0911 126.1 21.7524C126.676 22.3924 126.964 23.2671 126.964 24.3764C126.964 26.0404 126.356 27.3311 125.14 28.2484C123.945 29.1444 122.335 29.5924 120.308 29.5924ZM136.265 29.1444C135.219 29.1444 134.366 28.8244 133.705 28.1844C133.065 27.5231 132.745 26.6484 132.745 25.5604V16.6004H128.777V13.2724H132.745V8.34441H136.777V13.2724H141.129V16.6004H136.777V24.8564C136.777 25.4964 137.075 25.8164 137.673 25.8164H140.745V29.1444H136.265ZM150.827 29.4004C149.589 29.4004 148.501 29.1231 147.563 28.5684C146.645 27.9924 145.931 27.2031 145.419 26.2004C144.907 25.1977 144.651 24.0457 144.651 22.7444V13.2724H148.683V22.4244C148.683 23.6191 148.971 24.5151 149.547 25.1124C150.144 25.7097 150.987 26.0084 152.075 26.0084C153.312 26.0084 154.272 25.6031 154.955 24.7924C155.637 23.9604 155.979 22.8084 155.979 21.3364V13.2724H160.011V29.1444H156.043V27.0644H155.467C155.211 27.5977 154.731 28.1204 154.027 28.6324C153.323 29.1444 152.256 29.4004 150.827 29.4004ZM170.897 29.5924C169.639 29.5924 168.455 29.2831 167.345 28.6644C166.257 28.0244 165.383 27.0964 164.721 25.8804C164.06 24.6644 163.729 23.1924 163.729 21.4644V20.9524C163.729 19.2244 164.06 17.7524 164.721 16.5364C165.383 15.3204 166.257 14.4031 167.345 13.7844C168.433 13.1444 169.617 12.8244 170.897 12.8244C171.857 12.8244 172.657 12.9417 173.297 13.1764C173.959 13.3897 174.492 13.6671 174.897 14.0084C175.303 14.3497 175.612 14.7124 175.825 15.0964H176.401V6.74441H180.433V29.1444H176.465V27.2244H175.889C175.527 27.8217 174.961 28.3657 174.193 28.8564C173.447 29.3471 172.348 29.5924 170.897 29.5924ZM172.113 26.0724C173.351 26.0724 174.385 25.6777 175.217 24.8884C176.049 24.0777 176.465 22.9044 176.465 21.3684V21.0484C176.465 19.5124 176.049 18.3497 175.217 17.5604C174.407 16.7497 173.372 16.3444 172.113 16.3444C170.876 16.3444 169.841 16.7497 169.009 17.5604C168.177 18.3497 167.761 19.5124 167.761 21.0484V21.3684C167.761 22.9044 168.177 24.0777 169.009 24.8884C169.841 25.6777 170.876 26.0724 172.113 26.0724ZM184.904 29.1444V13.2724H188.936V29.1444H184.904ZM186.92 11.4164C186.194 11.4164 185.576 11.1817 185.064 10.7124C184.573 10.2431 184.328 9.62441 184.328 8.85641C184.328 8.08841 184.573 7.46974 185.064 7.00041C185.576 6.53107 186.194 6.29641 186.92 6.29641C187.666 6.29641 188.285 6.53107 188.776 7.00041C189.266 7.46974 189.512 8.08841 189.512 8.85641C189.512 9.62441 189.266 10.2431 188.776 10.7124C188.285 11.1817 187.666 11.4164 186.92 11.4164ZM200.956 29.5924C199.377 29.5924 197.958 29.2724 196.7 28.6324C195.441 27.9924 194.449 27.0644 193.724 25.8484C192.998 24.6324 192.636 23.1711 192.636 21.4644V20.9524C192.636 19.2457 192.998 17.7844 193.724 16.5684C194.449 15.3524 195.441 14.4244 196.7 13.7844C197.958 13.1444 199.377 12.8244 200.956 12.8244C202.534 12.8244 203.953 13.1444 205.212 13.7844C206.47 14.4244 207.462 15.3524 208.188 16.5684C208.913 17.7844 209.276 19.2457 209.276 20.9524V21.4644C209.276 23.1711 208.913 24.6324 208.188 25.8484C207.462 27.0644 206.47 27.9924 205.212 28.6324C203.953 29.2724 202.534 29.5924 200.956 29.5924ZM200.956 26.0084C202.193 26.0084 203.217 25.6137 204.028 24.8244C204.838 24.0137 205.244 22.8617 205.244 21.3684V21.0484C205.244 19.5551 204.838 18.4137 204.028 17.6244C203.238 16.8137 202.214 16.4084 200.956 16.4084C199.718 16.4084 198.694 16.8137 197.884 17.6244C197.073 18.4137 196.668 19.5551 196.668 21.0484V21.3684C196.668 22.8617 197.073 24.0137 197.884 24.8244C198.694 25.6137 199.718 26.0084 200.956 26.0084Z" fill="#0C0C0C"/>
</svg>
