<svg width="20" height="20" viewBox="0 0 20 20" fill="none" xmlns="http://www.w3.org/2000/svg">
<path d="M10.0257 18.3333C10.5813 17.7778 14.6279 9.61556 14.6279 9.61556C14.7447 9.32428 14.7985 9.01156 14.7858 8.69799C14.773 8.38442 14.694 8.07711 14.5538 7.7963L12.7761 5H7.22052L5.44274 7.7963C5.30263 8.07711 5.22359 8.38442 5.21082 8.69799C5.19806 9.01156 5.25185 9.32428 5.36866 9.61556C5.36866 9.61556 9.47015 17.7778 10.0257 18.3333Z" stroke="#7F6AFF" stroke-width="1.70019" stroke-linecap="square"/>
<path d="M9.99805 16.315L9.99805 11.6667" stroke="#7F6AFF" stroke-width="1.70019" stroke-linecap="square"/>
<path d="M12.7758 5.00008H7.22021L6.2654 2.57786C6.19784 2.49675 6.15479 2.39806 6.14128 2.29337C6.12778 2.18867 6.14438 2.0823 6.18915 1.9867C6.23392 1.8911 6.305 1.81023 6.39407 1.75357C6.48314 1.6969 6.5865 1.66679 6.69207 1.66675H13.3587C13.4643 1.66679 13.5677 1.6969 13.6567 1.75357C13.7458 1.81023 13.8169 1.8911 13.8616 1.9867C13.9064 2.0823 13.923 2.18867 13.9095 2.29337C13.896 2.39806 13.853 2.49675 13.7854 2.57786L12.7758 5.00008Z" stroke="#7F6AFF" stroke-width="1.70019" stroke-linecap="square"/>
</svg>
